<svg width="30" height="30" viewBox="0 0 39 39" fill="none" xmlns="http://www.w3.org/2000/svg">
<path d="M27.6843 0H11.3351C4.23361 0 0 4.2315 0 11.3295V27.651C0 34.7685 4.23361 39 11.3351 39H27.6648C34.7663 39 38.9999 34.7685 38.9999 27.6705V11.3295C39.0194 4.2315 34.7858 0 27.6843 0ZM27.3136 20.9625H20.973V27.3C20.973 28.0995 20.3096 28.7625 19.5097 28.7625C18.7098 28.7625 18.0465 28.0995 18.0465 27.3V20.9625H11.7058C10.9059 20.9625 10.2426 20.2995 10.2426 19.5C10.2426 18.7005 10.9059 18.0375 11.7058 18.0375H18.0465V11.7C18.0465 10.9005 18.7098 10.2375 19.5097 10.2375C20.3096 10.2375 20.973 10.9005 20.973 11.7V18.0375H27.3136C28.1135 18.0375 28.7768 18.7005 28.7768 19.5C28.7768 20.2995 28.1135 20.9625 27.3136 20.9625Z" fill="#E3973E"/>
</svg>
