<svg width="30" height="30" viewBox="0 0 39 39" fill="none" xmlns="http://www.w3.org/2000/svg">
<path d="M28.9496 2.73443L36.266 10.0539L37.4847 8.83297C37.9651 8.3525 38.3462 7.7821 38.6062 7.15433C38.8662 6.52656 39 5.85373 39 5.17424C39 4.49475 38.8662 3.82191 38.6062 3.19414C38.3462 2.56637 37.9651 1.99597 37.4847 1.5155C37.0043 1.03503 36.434 0.653895 35.8063 0.393865C35.1787 0.133836 34.5059 0 33.8265 0C32.4545 0 31.1386 0.545141 30.1684 1.5155L28.9496 2.73443ZM32.9061 13.4064L25.5898 6.08697L2.37509 29.3071L0 39L9.69147 36.6265L32.9061 13.4064Z" fill="white"/>
</svg>
