<svg width="29" height="19" viewBox="0 0 29 19" fill="none" xmlns="http://www.w3.org/2000/svg">
<path fill-rule="evenodd" clip-rule="evenodd" d="M10.3994 11.1897L14.5023 13.6405L18.4585 11.2569L27.3247 18.8988C27.0911 18.9645 26.842 19 26.5833 19H2.41667C2.09751 19 1.79281 18.946 1.5139 18.8478L10.3994 11.1897ZM29 4.9096V16.8889C29 17.2012 28.9223 17.4978 28.783 17.7645L20.0912 10.2739L29 4.9096ZM0 4.97673L8.7609 10.2106L0.153266 17.6304C0.0541866 17.3997 0 17.1498 0 16.8889L0 4.97673ZM26.5833 0C27.918 0 29 0.945176 29 2.11111V2.8538L14.4977 11.587L0 2.926L0 2.11111C0 0.945176 1.08198 0 2.41667 0H26.5833Z" fill="white"/>
</svg>
