<svg width="29" height="28" viewBox="0 0 29 28" fill="none" xmlns="http://www.w3.org/2000/svg">
<path fill-rule="evenodd" clip-rule="evenodd" d="M8.79567 19.5124C13.6718 24.2195 17.3518 26.4308 20.091 27.3773C22.8935 28.3457 24.6591 27.9705 25.5821 27.6701C26.1096 27.4984 26.5207 27.152 26.8126 26.8507C27.1204 26.5328 27.3959 26.1588 27.6339 25.7919C28.1105 25.0569 28.5171 24.2241 28.7927 23.6107C29.314 22.4504 28.8094 21.1662 27.7558 20.5558L22.6758 17.6128C21.6575 17.023 20.3539 17.1779 19.5142 17.9887L18.5667 18.9035C17.5932 18.4311 15.6868 17.3305 13.3683 15.0926C11.0504 12.8541 9.91061 11.0133 9.42132 10.0735L10.3688 9.15869C11.2086 8.34788 11.3691 7.0893 10.758 6.10604L7.71005 1.20123C7.07791 0.183983 5.74774 -0.303196 4.54608 0.200147C3.91074 0.466277 3.0482 0.85875 2.28692 1.31903C1.90689 1.54881 1.51959 1.81479 1.19041 2.11192C0.878244 2.39366 0.519487 2.79069 0.341676 3.29998C0.0305139 4.19123 -0.358015 5.89578 0.64493 8.60183C1.62515 11.2466 3.9155 14.7996 8.79063 19.5075L8.79567 19.5124Z" fill="white"/>
</svg>
